{
  "asset": {
    "generator": "Khronos glTF Blender I/O v3.6.27",
    "version": "2.0"
  },
  "scene": 0,
  "scenes": [
    {
      "name": "Scene",
      "nodes": [
        0
      ]
    }
  ],
  "nodes": [
    {
      "mesh": 0,
      "name": "carved_wooden_plate"
    }
  ],
  "materials": [
    {
      "doubleSided": true,
      "name": "carved_wooden_plate",
      "normalTexture": {
        "index": 0
      },
      "pbrMetallicRoughness": {
        "baseColorTexture": {
          "index": 1
        },
        "metallicFactor": 0,
        "metallicRoughnessTexture": {
          "index": 2
        }
      }
    }
  ],
  "meshes": [
    {
      "name": "Circle.002",
      "primitives": [
        {
          "attributes": {
            "POSITION": 0,
            "NORMAL": 1,
            "TEXCOORD_0": 2
          },
          "indices": 3,
          "material": 0
        }
      ]
    }
  ],
  "textures": [
    {
      "sampler": 0,
      "source": 0
    },
    {
      "sampler": 0,
      "source": 1
    },
    {
      "sampler": 0,
      "source": 2
    }
  ],
  "images": [
    {
      "mimeType": "image/jpeg",
      "name": "carved_wooden_plate_nor_gl",
      "uri": "textures/carved_wooden_plate_nor_gl_4k.jpg"
    },
    {
      "mimeType": "image/jpeg",
      "name": "carved_wooden_plate_diff",
      "uri": "textures/carved_wooden_plate_diff_4k.jpg"
    },
    {
      "mimeType": "image/jpeg",
      "name": "carved_wooden_plate_rough",
      "uri": "textures/carved_wooden_plate_arm_4k.jpg"
    }
  ],
  "accessors": [
    {
      "bufferView": 0,
      "componentType": 5126,
      "count": 1234,
      "max": [
        0.1343473345041275,
        0.03625521436333656,
        0.12669777870178223
      ],
      "min": [
        -0.13748358190059662,
        -0.0018553033005446196,
        -0.14208173751831055
      ],
      "type": "VEC3"
    },
    {
      "bufferView": 1,
      "componentType": 5126,
      "count": 1234,
      "type": "VEC3"
    },
    {
      "bufferView": 2,
      "componentType": 5126,
      "count": 1234,
      "type": "VEC2"
    },
    {
      "bufferView": 3,
      "componentType": 5123,
      "count": 6336,
      "type": "SCALAR"
    }
  ],
  "bufferViews": [
    {
      "buffer": 0,
      "byteLength": 14808,
      "byteOffset": 0,
      "target": 34962
    },
    {
      "buffer": 0,
      "byteLength": 14808,
      "byteOffset": 14808,
      "target": 34962
    },
    {
      "buffer": 0,
      "byteLength": 9872,
      "byteOffset": 29616,
      "target": 34962
    },
    {
      "buffer": 0,
      "byteLength": 12672,
      "byteOffset": 39488,
      "target": 34963
    }
  ],
  "samplers": [
    {
      "magFilter": 9729,
      "minFilter": 9987
    }
  ],
  "buffers": [
    {
      "byteLength": 52160,
      "uri": "carved_wooden_plate.bin"
    }
  ]
}